<svg xmlns="http://www.w3.org/2000/svg" viewBox="0 0 100 100" fill="context-fill" fill-opacity="context-fill-opacity">
  <path d="M78.2,11.2c-3-3-7.2-5.3-12.4-6.7c-4.6-1.3-9.8-1.9-15.6-1.9c-9.9,0.1-17.8,1.8-23.5,5.2C19.4,12,15.8,18.7,15.8,27.6v40 c0,8.6,3.8,15.8,10.9,20.9c6.2,4.4,14.5,6.8,23.4,6.8c0.1,0,0.2,0,0.3,0c8.9,0,17.2-2.5,23.3-7c6.9-5,10.6-12.2,10.5-20.7V26.7 C84.2,20.4,82.2,15.2,78.2,11.2z M65.4,19.2C61.7,20.4,56.4,21,50,21c-5.8,0-11.3-0.8-15.5-2.3c-4.2-1.5-6.6-3.6-6.6-5.8 s2.3-4.3,6.6-5.8c4.1-1.5,9.6-2.3,15.5-2.3c5.8,0,11.3,0.8,15.5,2.3c4.2,1.5,6.6,3.6,6.6,5.8C72,15.7,69.8,17.9,65.4,19.2z"/>
</svg>
